<?xml version="1.0" encoding="utf-8"?>
<!-- Generator: Adobe Illustrator 20.0.0, SVG Export Plug-In . SVG Version: 6.00 Build 0)  -->
<svg version="1.1" id="Layer_1" xmlns="http://www.w3.org/2000/svg" xmlns:xlink="http://www.w3.org/1999/xlink" x="0px" y="0px"
	 viewBox="0 0 31.2 20" style="enable-background:new 0 0 31.2 20;" xml:space="preserve">
<style type="text/css">
	.st0{fill:#FFFFFF;}
</style>
<path class="st0" d="M31.2,10c0,0,0-0.1,0-0.1c0,0,0,0,0-0.1c0,0,0,0-0.1-0.1c0,0,0-0.1,0-0.1L21.7,0L21,0.7l8.5,8.8H0v1h29.5
	L21,19.3l0.7,0.7l9.3-9.7c0,0,0-0.1,0-0.1c0,0,0,0,0.1-0.1c0,0,0,0,0-0.1C31.2,10.1,31.2,10.1,31.2,10z"/>
</svg>
