<?xml version="1.0" encoding="utf-8"?>
<!-- Generator: Adobe Illustrator 21.0.2, SVG Export Plug-In . SVG Version: 6.00 Build 0)  -->
<svg version="1.1" id="Layer_1" xmlns="http://www.w3.org/2000/svg" xmlns:xlink="http://www.w3.org/1999/xlink" x="0px" y="0px"
	 viewBox="0 0 439 297.7" enable-background="new 0 0 439 297.7" xml:space="preserve">
<path fill="#6F839C" d="M271.5,119.2v-2c5.1,0,9.3-4.2,9.3-9.3V58.5h2v49.4C282.8,114.2,277.8,119.2,271.5,119.2z"/>
<polygon fill="#6F839C" points="262.2,98.8 260.2,98.8 260.2,57.5 281.8,57.5 281.8,59.5 262.2,59.5 "/>
<rect x="261.2" y="67" fill="#6F839C" width="8.3" height="2"/>
<rect x="258.9" y="84" fill="#6F839C" width="8.3" height="2"/>
<rect x="261.2" y="76" fill="#3D4353" width="4.1" height="2"/>
<rect x="258.9" y="92" fill="#3D4353" width="4.1" height="2"/>
<path fill="#6F839C" d="M194.1,88.3l-15.2-5.3l9.1-25.7l15.2,5.3L194.1,88.3z M181.5,81.7l11.4,4l7.8-21.9l-11.4-4L181.5,81.7z"/>
<path fill="#6F839C" d="M198.6,63.1l-7.2-2.5l2.5-7.2l7.2,2.5L198.6,63.1z M193.9,59.3l3.4,1.2l1.2-3.4l-3.4-1.2L193.9,59.3z"/>
<rect x="196.2" y="49.9" transform="matrix(0.3319 -0.9433 0.9433 0.3319 79.2994 223.1243)" fill="#3D4353" width="2" height="11.3"/>
<g>
	<defs>
		<rect id="SVGID_1_" x="167.7" y="114" width="51.4" height="16.1"/>
	</defs>
	<clipPath id="SVGID_2_">
		<use xlink:href="#SVGID_1_"  overflow="visible"/>
	</clipPath>
	<g clip-path="url(#SVGID_2_)" enable-background="new    ">
		<g>
			<defs>
				<rect id="SVGID_3_" x="157.7" y="107" width="72" height="21"/>
			</defs>
			<clipPath id="SVGID_4_">
				<use xlink:href="#SVGID_3_"  overflow="visible"/>
			</clipPath>
			<g clip-path="url(#SVGID_4_)">
				<defs>
					<rect id="SVGID_5_" x="167.7" y="113" width="52" height="18"/>
				</defs>
				<clipPath id="SVGID_6_">
					<use xlink:href="#SVGID_5_"  overflow="visible"/>
				</clipPath>
				<rect x="167.7" y="117" clip-path="url(#SVGID_6_)" fill="#6F839C" width="51.4" height="2"/>
			</g>
		</g>
	</g>
</g>
<path fill="#6F839C" d="M177.7,118.2h-2v-16.8H170v-2h24.6v2h-8.2l4.3,6.9h21.8c5.3,0,7.9-2.9,7.9-9v-5.6c0-6.7-2.7-10.1-7.9-10.1
	h-6l-9.4-9.4l1.2-3.8h23.1c6.7,0,12.2,5.4,12.2,12.1v13.1h-2V82.6c0-5.6-4.6-10.1-10.2-10.1h-21.7l-0.4,1.2l8,7.9h5.2
	c6.4,0,9.9,4.3,9.9,12.1v5.6c0,7.1-3.5,11-9.9,11h-22.9l-5.6-8.9h-6.3V118.2z"/>
<rect x="229.7" y="100" fill="#6F839C" width="32.7" height="2"/>
<path fill="#6F839C" d="M183.7,94.3l-7.2-2.5L180,82l7.2,2.5L183.7,94.3z M179.1,90.6l3.4,1.2l2.1-6l-3.4-1.2L179.1,90.6z"/>
<path fill="#3D4353" d="M268,119.7h-44c-3.4,0-6.2-2.8-6.2-6.2v-0.4L238.8,87V73.9h14.6V87l20.9,26.1v0.4
	C274.3,116.9,271.5,119.7,268,119.7z M219.8,113.8c0.2,2.2,2,3.9,4.2,3.9h44c2.3,0,4.1-1.7,4.2-3.9l-20.9-26V75.9h-10.6v11.9
	L219.8,113.8z"/>
<rect x="236.6" y="73" fill="#6F839C" width="18.8" height="2"/>
<path fill="#3D4353" d="M232.6,65.5c-2.3,0-4.1-1.9-4.1-4.1s1.9-4.1,4.1-4.1s4.1,1.9,4.1,4.1S234.9,65.5,232.6,65.5z M232.6,59.2
	c-1.2,0-2.1,1-2.1,2.1s1,2.1,2.1,2.1s2.1-1,2.1-2.1S233.8,59.2,232.6,59.2z"/>
<path fill="#3D4353" d="M258,54c-2.3,0-4.1-1.9-4.1-4.1c0-2.3,1.9-4.1,4.1-4.1s4.1,1.9,4.1,4.1C262.2,52.1,260.3,54,258,54z
	 M258,47.7c-1.2,0-2.1,1-2.1,2.1s1,2.1,2.1,2.1s2.1-1,2.1-2.1S259.2,47.7,258,47.7z"/>
<path fill="#6F839C" d="M249.2,70.4c-3.8,0-7-3.1-7-6.9s3.1-6.9,7-6.9s7,3.1,7,6.9S253,70.4,249.2,70.4z M249.2,58.5
	c-2.7,0-5,2.2-5,4.9s2.2,4.9,5,4.9c2.7,0,5-2.2,5-4.9S251.9,58.5,249.2,58.5z"/>
<path fill="#6F839C" d="M241.9,57c-5.5,0-9.9-4.4-9.9-9.9s4.5-9.9,9.9-9.9s9.9,4.4,9.9,9.9S247.4,57,241.9,57z M241.9,39.2
	c-4.4,0-7.9,3.5-7.9,7.9c0,4.4,3.6,7.9,7.9,7.9s7.9-3.5,7.9-7.9C249.8,42.8,246.2,39.2,241.9,39.2z"/>
<g>
	<path fill="#3D4353" d="M35.5,153c0-0.4,0.4-0.8,0.8-0.8h17.9c0.5,0,0.8,0.4,0.8,0.8v3.6c0,0.4-0.4,0.8-0.8,0.8h-13v7.2H52
		c0.4,0,0.8,0.4,0.8,0.8v3.6c0,0.5-0.4,0.8-0.8,0.8H41.2v7.7h13c0.5,0,0.8,0.4,0.8,0.8v3.6c0,0.4-0.4,0.8-0.8,0.8H36.3
		c-0.5,0-0.8-0.4-0.8-0.8V153z"/>
	<path fill="#3D4353" d="M57.8,181.6l5.7-7.7l-5.5-7.3c-0.4-0.6-0.1-1.3,0.7-1.3h3.6c0.6,0,1.1,0,1.4,0.6l2.9,4.1h0l2.9-4.1
		c0.4-0.5,0.7-0.6,1.3-0.6h4c0.7,0,1,0.7,0.5,1.3l-5.5,7.3l5.6,7.7c0.4,0.6,0.2,1.3-0.5,1.3H71c-0.6,0-0.9-0.3-1.2-0.7l-3.1-4.4h0
		l-3.3,4.7c-0.1,0.2-0.5,0.4-0.7,0.4h-4.2C57.6,182.9,57.4,182.2,57.8,181.6z"/>
	<path fill="#3D4353" d="M84.6,195.2c0,0.5-0.3,0.8-1.1,0.8H80c-0.4,0-0.8-0.4-0.8-0.8v-29.1c0-0.5,0.4-0.8,0.8-0.8h1.7
		c0.3,0,0.6,0.2,0.7,0.5l0.6,1.4c0.7-0.9,2.8-2.4,5.7-2.4c4.8,0,8.5,4.2,8.5,9.2c0,5.2-4,9.2-8.7,9.2c-1.7,0-3.3-0.6-3.9-1V195.2z
		 M87.8,178.6c2.5,0,4.3-2,4.3-4.5c0-2.5-1.7-4.5-4.1-4.5c-2.2,0-3.3,1.8-3.6,2.7v5.3C84.4,177.6,85.6,178.6,87.8,178.6z"/>
	<path fill="#3D4353" d="M108.8,164.9c4.5,0,8.2,3.4,8.2,8.2c0,0.3,0,0.9-0.1,1.2c0,0.4-0.4,0.7-0.8,0.7h-11.2
		c0.1,1.8,1.7,3.8,4.2,3.8c1.4,0,2.6-0.5,3.4-1.1c0.4-0.3,0.8-0.4,1.1,0l1.8,2.1c0.3,0.3,0.4,0.8,0,1.1c-1.4,1.4-3.7,2.4-6.5,2.4
		c-5.3,0-9-4.2-9-9.2C99.8,169.1,103.6,164.9,108.8,164.9z M111.9,171.9c-0.1-1.6-1.5-3-3.2-3c-1.8,0-3.2,1.3-3.4,3H111.9z"/>
	<path fill="#3D4353" d="M120.7,166.2c0-0.5,0.4-0.8,0.8-0.8h1.7c0.4,0,0.7,0.2,0.8,0.6l0.6,1.7c0.6-0.9,2.2-2.7,5-2.7
		c2.1,0,3.9,0.7,3.4,1.8l-1.6,2.9c-0.2,0.4-0.7,0.6-1,0.4c-0.1,0-0.8-0.3-1.3-0.3c-1.8,0-2.8,1.2-3.1,1.8v10.6c0,0.6-0.4,0.8-1,0.8
		h-3.4c-0.4,0-0.8-0.4-0.8-0.8V166.2z"/>
	<path fill="#3D4353" d="M135.3,156.1c0-1.7,1.3-3,3-3c1.7,0,3.1,1.4,3.1,3c0,1.7-1.4,3-3.1,3C136.6,159.1,135.3,157.7,135.3,156.1z
		 M135.7,166.2c0-0.5,0.4-0.8,0.8-0.8h3.6c0.4,0,0.8,0.4,0.8,0.8v15.9c0,0.4-0.4,0.8-0.8,0.8h-3.6c-0.4,0-0.8-0.4-0.8-0.8V166.2z"/>
	<path fill="#3D4353" d="M146.3,166.2c0-0.5,0.4-0.8,0.8-0.8h1.6c0.4,0,0.7,0.2,0.7,0.5l0.6,1.7c0.7-0.8,2.8-2.6,5.9-2.6
		c2.5,0,4.3,1,5.7,2.7c0.7-0.8,3-2.7,6.2-2.7c5.6,0,7.7,4.2,7.7,8.8v8.4c0,0.4-0.4,0.8-0.8,0.8h-3.6c-0.5,0-0.8-0.4-0.8-0.8v-8.7
		c0-2.3-1.1-3.7-3.3-3.7c-2.5,0-3.7,1.8-3.7,1.8s0,0.9,0,1.7v8.9c0,0.4-0.4,0.8-0.8,0.8h-3.3c-0.5,0-0.8-0.4-0.8-0.8v-8.7
		c0-2.3-1-3.7-3.2-3.7c-2.2,0-3.2,1.6-3.7,2.8v9.7c0,0.4-0.4,0.8-0.8,0.8h-3.6c-0.4,0-0.8-0.4-0.8-0.8V166.2z"/>
	<path fill="#3D4353" d="M188.1,164.9c4.5,0,8.2,3.4,8.2,8.2c0,0.3,0,0.9-0.1,1.2c0,0.4-0.4,0.7-0.8,0.7h-11.2
		c0.1,1.8,1.7,3.8,4.2,3.8c1.4,0,2.6-0.5,3.4-1.1c0.4-0.3,0.8-0.4,1.1,0l1.8,2.1c0.3,0.3,0.4,0.8,0,1.1c-1.4,1.4-3.7,2.4-6.5,2.4
		c-5.3,0-9-4.2-9-9.2C179.2,169.1,182.9,164.9,188.1,164.9z M191.2,171.9c-0.1-1.6-1.5-3-3.2-3c-1.8,0-3.2,1.3-3.4,3H191.2z"/>
	<path fill="#3D4353" d="M200,166.2c0-0.5,0.4-0.8,0.8-0.8h1.7c0.4,0,0.6,0.2,0.7,0.5l0.6,1.6c0.7-0.7,2.8-2.6,6.2-2.6
		c5.6,0,7.8,4.2,7.8,8.7v8.4c0,0.4-0.4,0.8-0.8,0.8h-3.6c-0.5,0-0.8-0.4-0.8-0.8v-8.7c0-2.3-1.2-3.7-3.3-3.7c-2.3,0-3.7,1.6-4.1,2.8
		v9.7c0,0.6-0.3,0.8-1.1,0.8h-3.2c-0.4,0-0.8-0.4-0.8-0.8V166.2z"/>
	<path fill="#3D4353" d="M223.6,169.9h-1.5c-0.4,0-0.8-0.4-0.8-0.8v-2.9c0-0.5,0.4-0.8,0.8-0.8h1.5v-4.9c0-0.4,0.4-0.8,0.8-0.8
		l3.6,0c0.4,0,0.8,0.4,0.8,0.8v4.9h3.9c0.5,0,0.8,0.4,0.8,0.8v2.9c0,0.4-0.4,0.8-0.8,0.8h-3.9v7c0,1.2,0.7,1.4,1.4,1.4
		c0.7,0,1.7-0.3,2.2-0.5c0.5-0.2,0.8,0,1,0.5l0.9,2.8c0.2,0.4,0,0.9-0.5,1.1c-0.2,0.1-3.1,1.1-5.2,1.1c-3.4,0-4.9-2.1-4.9-5.7V169.9
		z"/>
	<path fill="#6F839C" d="M245.7,166.3c-0.3-0.6,0.1-1,0.7-1h3.2c0.3,0,0.7,0.2,0.8,0.5l2.6,7.9h0l4.5-8.4c0.1-0.2,0.3-0.4,0.7-0.4
		h0.4c0.4,0,0.6,0.2,0.7,0.4l4.4,8.4h0l2.6-7.9c0.2-0.5,0.5-0.5,1-0.5h2.9c0.6,0,1,0.4,0.8,1l-5.5,16.5c-0.1,0.3-0.4,0.5-0.8,0.5
		h-0.2c-0.4,0-0.6-0.2-0.7-0.4l-5.5-10.2h0l-5.5,10.2c-0.1,0.2-0.4,0.4-0.7,0.4h-0.2c-0.4,0-0.7-0.2-0.7-0.5L245.7,166.3z"/>
	<path fill="#6F839C" d="M274.2,156.1c0-1.7,1.3-3,3-3c1.7,0,3.1,1.4,3.1,3c0,1.7-1.4,3-3.1,3C275.5,159.1,274.2,157.7,274.2,156.1z
		 M274.6,166.2c0-0.5,0.4-0.8,0.8-0.8h3.6c0.4,0,0.8,0.4,0.8,0.8v15.9c0,0.4-0.4,0.8-0.8,0.8h-3.6c-0.4,0-0.8-0.4-0.8-0.8V166.2z"/>
	<path fill="#6F839C" d="M286.1,169.9h-1.5c-0.4,0-0.8-0.4-0.8-0.8v-2.9c0-0.5,0.4-0.8,0.8-0.8h1.5v-4.9c0-0.4,0.4-0.8,0.8-0.8
		l3.6,0c0.4,0,0.8,0.4,0.8,0.8v4.9h3.9c0.5,0,0.8,0.4,0.8,0.8v2.9c0,0.4-0.4,0.8-0.8,0.8h-3.9v7c0,1.2,0.7,1.4,1.4,1.4
		c0.7,0,1.7-0.3,2.2-0.5c0.5-0.2,0.8,0,1,0.5l0.9,2.8c0.2,0.4,0,0.9-0.5,1.1c-0.2,0.1-3.1,1.1-5.2,1.1c-3.4,0-4.9-2.1-4.9-5.7V169.9
		z"/>
	<path fill="#6F839C" d="M300.3,153c0-0.4,0.4-0.8,0.8-0.8h3.7c0.4,0,0.8,0.4,0.8,0.8v13.3c0.9-0.7,2.6-1.4,4.7-1.4
		c5.6,0,7.9,4.3,7.9,8.7v8.4c0,0.4-0.4,0.8-0.8,0.8h-3.6c-0.5,0-0.8-0.4-0.8-0.8v-8.5c0-2.4-1.4-4-3.5-4c-2,0-3.4,1.3-3.8,3.1v9.3
		c0,0.5-0.3,0.8-0.9,0.8h-3.6c-0.4,0-0.8-0.4-0.8-0.8V153z"/>
	<path fill="#6F839C" d="M330.6,166.5c-0.3-0.6,0.1-1.1,0.7-1.1h4c0.4,0,0.6,0.2,0.7,0.5l4.4,9.9h0l4.4-9.9c0.2-0.4,0.5-0.5,1.1-0.5
		h3.5c0.7,0,1.1,0.6,0.7,1.1l-13.4,29.1c-0.1,0.3-0.4,0.5-0.7,0.5h-3.8c-0.7,0-1.1-0.6-0.7-1.2l6.2-13.2L330.6,166.5z"/>
	<path fill="#6F839C" d="M360.8,164.9c5,0,9,4.2,9,9.2c0,5-4,9.3-9,9.3s-9-4.2-9-9.3C351.8,169.1,355.9,164.9,360.8,164.9z
		 M360.8,178.6c2.3,0,4.2-2,4.2-4.5c0-2.5-1.9-4.4-4.2-4.4c-2.4,0-4.2,2-4.2,4.4C356.6,176.6,358.5,178.6,360.8,178.6z"/>
	<path fill="#6F839C" d="M373.5,166.2c0-0.5,0.4-0.8,0.8-0.8h3.6c0.4,0,0.8,0.4,0.8,0.8v8.7c0,2.3,1.2,3.8,3.2,3.8
		c1.8,0,3.2-1.7,3.5-3.3v-9.1c0-0.7,0.3-0.8,1-0.8h3.3c0.4,0,0.8,0.4,0.8,0.8v15.9c0,0.4-0.4,0.8-0.8,0.8h-1.6
		c-0.4,0-0.7-0.3-0.8-0.7l-0.5-1.4c-0.8,0.7-2.4,2.5-5.9,2.5c-5.4,0-7.4-4.2-7.4-8.7V166.2z"/>
	<path fill="#6F839C" d="M395.8,166.2c0-0.5,0.4-0.8,0.8-0.8h1.7c0.4,0,0.7,0.2,0.8,0.6l0.6,1.7c0.6-0.9,2.2-2.7,5-2.7
		c2.1,0,3.9,0.7,3.4,1.8l-1.6,2.9c-0.2,0.4-0.7,0.6-1,0.4c-0.1,0-0.8-0.3-1.3-0.3c-1.8,0-2.8,1.2-3.1,1.8v10.6c0,0.6-0.4,0.8-1,0.8
		h-3.4c-0.4,0-0.8-0.4-0.8-0.8V166.2z"/>
	<path fill="#6F839C" d="M101.7,205.7c0-0.4,0.4-0.8,0.8-0.8h10.4c8.5,0,15.4,6.9,15.4,15.3c0,8.5-6.9,15.4-15.4,15.4h-10.4
		c-0.4,0-0.8-0.4-0.8-0.8V205.7z M112.4,230.2c5.7,0,9.9-4.3,9.9-10.1c0-5.7-4.2-10-9.9-10h-5v20.1H112.4z"/>
	<path fill="#6F839C" d="M131.5,233.8c2.9-3.5,8.4-10.7,11.4-14.6c1.4-1.7,2.2-3.4,2.2-4.9c0-2-1.5-4-4.7-4c-2.1,0-3.9,1.5-4.9,2.6
		c-0.4,0.4-0.8,0.4-1.2,0l-2.1-2.1c-0.3-0.3-0.4-0.8,0-1.1c0,0,3.4-4.3,8.7-4.3c6.3,0,9.8,4,9.8,8.7c0,2.9-1.2,4.7-2.9,7.1
		c-1.9,2.7-5.2,6.8-7.6,9.7h9.5c0.4,0,0.8,0.4,0.8,0.8v3c0,0.4-0.4,0.8-0.8,0.8h-17.3c-0.5,0-0.8-0.4-0.8-0.8V233.8z"/>
	<path fill="#6F839C" d="M170.5,204.4c4.4,0,7.6,1.4,10.6,4.1c0.4,0.4,0.4,0.9,0,1.2l-2.7,2.8c-0.3,0.4-0.7,0.4-1.1,0
		c-1.8-1.6-4.3-2.6-6.8-2.6c-5.6,0-9.8,4.7-9.8,10.2c0,5.5,4.2,10.1,9.8,10.1c2.6,0,4.9-1,6.7-2.5c0.4-0.3,0.8-0.3,1.1,0l2.7,2.8
		c0.4,0.3,0.3,0.9,0,1.2c-3,2.9-6.8,4.3-10.7,4.3c-8.8,0-15.9-7-15.9-15.8S161.7,204.4,170.5,204.4z"/>
	<path fill="#6F839C" d="M196.6,205.7c0-0.4,0.4-0.8,0.8-0.8h10.1c5.2,0,9.3,3.5,9.3,8.1c0,3.4-2.8,6-4.8,7c2.3,0.7,5.7,3.1,5.7,7.2
		c0,4.9-4.2,8.5-9.6,8.5h-10.6c-0.5,0-0.8-0.4-0.8-0.8V205.7z M207,217.8c2.2,0,3.8-1.8,3.8-4c0-2.2-1.5-3.7-3.8-3.7h-4.7v7.7H207z
		 M207.6,230.4c2.2,0,4-1.7,4-4c0-2.2-2.2-3.8-4.5-3.8h-4.8v7.8H207.6z"/>
	<path fill="#6F839C" d="M221.3,218.9c0-0.5,0.4-0.8,0.8-0.8h3.6c0.4,0,0.8,0.4,0.8,0.8v8.7c0,2.3,1.2,3.8,3.2,3.8
		c1.8,0,3.2-1.7,3.5-3.3v-9.1c0-0.7,0.3-0.8,1-0.8h3.3c0.4,0,0.8,0.4,0.8,0.8v15.9c0,0.4-0.4,0.8-0.8,0.8H236
		c-0.4,0-0.7-0.3-0.8-0.7l-0.5-1.4c-0.8,0.7-2.4,2.5-5.9,2.5c-5.4,0-7.4-4.2-7.4-8.7V218.9z"/>
	<path fill="#6F839C" d="M242.8,233.5l1.2-2.4c0.2-0.4,0.6-0.5,1-0.3c0,0,2,1.1,4,1.1c0.9,0,1.5-0.4,1.5-1.1c0-0.8-0.6-1.3-2.9-2.2
		c-3.4-1.3-5-3.1-5-5.8s2-5.2,6.5-5.2c2.6,0,4.5,0.7,5.4,1.4c0.4,0.3,0.6,0.7,0.4,1.2l-1.1,2.2c-0.2,0.4-0.7,0.4-1.1,0.3
		c0,0-2-0.9-3.6-0.9c-1.1,0-1.5,0.4-1.5,1c0,0.8,0.8,1.1,2.4,1.7c3.4,1.3,5.9,2.8,5.9,6.2c0,2.9-2.5,5.4-7,5.4
		c-2.9,0-4.9-0.9-5.8-1.6C242.8,234.2,242.6,233.8,242.8,233.5z"/>
	<path fill="#6F839C" d="M259.3,208.8c0-1.7,1.3-3,3-3c1.7,0,3.1,1.4,3.1,3c0,1.7-1.4,3-3.1,3C260.6,211.8,259.3,210.4,259.3,208.8z
		 M259.7,218.9c0-0.5,0.4-0.8,0.8-0.8h3.6c0.4,0,0.8,0.4,0.8,0.8v15.9c0,0.4-0.4,0.8-0.8,0.8h-3.6c-0.4,0-0.8-0.4-0.8-0.8V218.9z"/>
	<path fill="#6F839C" d="M270.3,218.9c0-0.5,0.4-0.8,0.8-0.8h1.7c0.4,0,0.6,0.2,0.7,0.5l0.6,1.6c0.7-0.7,2.8-2.6,6.2-2.6
		c5.6,0,7.8,4.2,7.8,8.7v8.4c0,0.4-0.4,0.8-0.8,0.8h-3.6c-0.5,0-0.8-0.4-0.8-0.8v-8.7c0-2.3-1.2-3.7-3.3-3.7c-2.3,0-3.7,1.6-4.1,2.8
		v9.7c0,0.6-0.3,0.8-1.1,0.8h-3.2c-0.4,0-0.8-0.4-0.8-0.8V218.9z"/>
	<path fill="#6F839C" d="M300.7,217.6c4.5,0,8.2,3.4,8.2,8.2c0,0.3,0,0.9-0.1,1.2c0,0.4-0.4,0.7-0.8,0.7h-11.2
		c0.1,1.8,1.7,3.8,4.2,3.8c1.4,0,2.6-0.5,3.4-1.1c0.4-0.3,0.8-0.4,1.1,0l1.8,2.1c0.3,0.3,0.4,0.8,0,1.1c-1.4,1.4-3.7,2.4-6.5,2.4
		c-5.3,0-9-4.2-9-9.2C291.8,221.8,295.5,217.6,300.7,217.6z M303.8,224.6c-0.1-1.6-1.5-3-3.2-3c-1.8,0-3.2,1.3-3.4,3H303.8z"/>
	<path fill="#6F839C" d="M311.7,233.5l1.2-2.4c0.2-0.4,0.6-0.5,1-0.3c0,0,2,1.1,4,1.1c0.9,0,1.5-0.4,1.5-1.1c0-0.8-0.6-1.3-2.9-2.2
		c-3.4-1.3-5-3.1-5-5.8s2-5.2,6.5-5.2c2.6,0,4.5,0.7,5.4,1.4c0.4,0.3,0.6,0.7,0.4,1.2l-1.1,2.2c-0.2,0.4-0.7,0.4-1.1,0.3
		c0,0-2-0.9-3.6-0.9c-1.1,0-1.5,0.4-1.5,1c0,0.8,0.8,1.1,2.4,1.7c3.4,1.3,5.9,2.8,5.9,6.2c0,2.9-2.5,5.4-7,5.4
		c-2.9,0-4.9-0.9-5.8-1.6C311.7,234.2,311.5,233.8,311.7,233.5z"/>
	<path fill="#6F839C" d="M327.7,233.5l1.2-2.4c0.2-0.4,0.6-0.5,1-0.3c0,0,2,1.1,4,1.1c0.9,0,1.5-0.4,1.5-1.1c0-0.8-0.6-1.3-2.9-2.2
		c-3.4-1.3-5-3.1-5-5.8s2-5.2,6.5-5.2c2.6,0,4.5,0.7,5.4,1.4c0.4,0.3,0.6,0.7,0.4,1.2l-1.1,2.2c-0.2,0.4-0.7,0.4-1.1,0.3
		c0,0-2-0.9-3.6-0.9c-1.1,0-1.5,0.4-1.5,1c0,0.8,0.8,1.1,2.4,1.7c3.4,1.3,5.9,2.8,5.9,6.2c0,2.9-2.5,5.4-7,5.4
		c-2.9,0-4.9-0.9-5.8-1.6C327.7,234.2,327.5,233.8,327.7,233.5z"/>
</g>
</svg>
