<?xml version="1.0" encoding="utf-8"?>
<!-- Generator: Adobe Illustrator 21.0.2, SVG Export Plug-In . SVG Version: 6.00 Build 0)  -->
<svg version="1.1" id="Layer_1" xmlns="http://www.w3.org/2000/svg" xmlns:xlink="http://www.w3.org/1999/xlink" x="0px" y="0px"
	 viewBox="0 0 439 297.7" enable-background="new 0 0 439 297.7" xml:space="preserve">
<path fill="#6F839C" d="M238.9,79.5c-0.4,0-0.8,0-1.1-0.1c-1.7-0.3-4-1.6-5.7-5.5c-3-2.1-3.6-4.4-3.6-5.9c0-2.3,1.5-4.6,3.9-6.3l0,0
	c2.2-1.5,4.4-2,6.5-2.6c2.4-0.6,5-1.3,7.7-3.3c0.2-0.2,0.6-0.2,0.8-0.2c0.3,0.1,0.5,0.3,0.7,0.6c2.5,5.5,1.2,16.2-2.6,20.1
	C243.5,78.4,241.1,79.5,238.9,79.5z M233.4,63.4c-1.9,1.2-3,3-3,4.6c0,1.6,1,3.1,3,4.4c0.2,0.1,0.3,0.3,0.4,0.5
	c1.1,2.7,2.5,4.3,4.3,4.6c1.8,0.4,4-0.6,5.9-2.5c2.7-2.8,4.3-11.5,2.6-16.8c-2.6,1.7-5.1,2.3-7.3,2.9
	C237.3,61.6,235.3,62.1,233.4,63.4L233.4,63.4z"/>
<path fill="#6F839C" d="M212.5,74.4c-3,0-6.2-1.9-9.1-5.2c-4.4-5.3-6.5-19.7-2.5-27.3c0.1-0.3,0.4-0.5,0.7-0.5
	c0.3-0.1,0.6,0,0.8,0.2c3.2,2.7,7.1,3.7,10.8,4.6c4.1,1,8,1.9,10.6,5.1l0,0c1.6,1.9,4.2,5.7,3.2,9.8c-0.7,2.9-3,5.3-6.8,7
	c-1.8,3.7-4.1,5.8-6.9,6.2C213.1,74.3,212.8,74.4,212.5,74.4z M202.2,43.9c-2.9,7.1-1,19.5,2.8,24c2.7,3.2,5.7,4.8,8.2,4.5
	c2.2-0.3,4.1-2.1,5.5-5.4c0.1-0.2,0.3-0.4,0.5-0.5c3.4-1.5,5.4-3.4,6-5.8c0.6-2.4-0.5-5.4-2.8-8.1c0,0,0,0,0,0
	c-2.3-2.7-5.6-3.5-9.6-4.4C209.4,47.2,205.5,46.3,202.2,43.9z"/>
<path fill="#3D4353" d="M227.1,84.9C227,84.9,227,84.9,227.1,84.9c-0.5,0-0.9-0.3-1-0.8c0-0.2-4.1-17.3-18.7-30.4
	c-0.4-0.4-0.4-1-0.1-1.4c0.4-0.4,1-0.4,1.4-0.1c11.6,10.5,16.7,23.1,18.5,28.6c1.8-4,5.8-11.1,12.4-14.5c0.5-0.2,1.1,0,1.3,0.4
	c0.2,0.5,0,1.1-0.4,1.3c-8.5,4.3-12.5,16-12.6,16.1C227.9,84.7,227.5,84.9,227.1,84.9z"/>
<g>
	<defs>
		<rect id="SVGID_7_" x="169.4" y="24.5" width="87.8" height="88"/>
	</defs>
	<clipPath id="SVGID_2_">
		<use xlink:href="#SVGID_7_"  overflow="visible"/>
	</clipPath>
	<g clip-path="url(#SVGID_2_)" enable-background="new    ">
		<g>
			<defs>
				<rect id="SVGID_9_" x="184.2" y="82.5" width="74" height="35"/>
			</defs>
			<clipPath id="SVGID_4_">
				<use xlink:href="#SVGID_9_"  overflow="visible"/>
			</clipPath>
			<g clip-path="url(#SVGID_4_)">
				<defs>
					<rect id="SVGID_11_" x="169.2" y="23.5" width="89" height="89"/>
				</defs>
				<clipPath id="SVGID_6_">
					<use xlink:href="#SVGID_11_"  overflow="visible"/>
				</clipPath>
				<path clip-path="url(#SVGID_6_)" fill="#6F839C" d="M199.1,107.5h-11.9c-0.6,0-1-0.4-1-1V85.1c0-0.6,0.4-1,1-1h11.9
					c0.6,0,1,0.4,1,1v21.4C200.1,107.1,199.7,107.5,199.1,107.5z M188.2,105.5h9.9V86.1h-9.9V105.5z"/>
				<path clip-path="url(#SVGID_6_)" fill="#6F839C" d="M223.9,112.5c-4,0-8.2-1.5-15.8-4.1c-2.7-0.9-5.7-2-9.3-3.2
					c-0.5-0.2-0.8-0.7-0.6-1.3c0.2-0.5,0.7-0.8,1.3-0.6c3.6,1.2,6.7,2.3,9.3,3.2c16.4,5.7,16.4,5.7,33.6-3.3c3.2-1.7,7.2-3.8,12-6.2
					c-2.6-2.3-4.6-2.9-6.9-2.3L234.6,99c-0.5,0.2-1.1-0.1-1.3-0.6s0.1-1.1,0.6-1.3l12.8-4.3c4-1.2,6.9,0.7,9.9,3.7
					c0.2,0.2,0.3,0.5,0.3,0.9c-0.1,0.3-0.3,0.6-0.5,0.7c-5.3,2.7-9.7,5-13.2,6.8C233.4,110.1,228.9,112.5,223.9,112.5z"/>
				<path clip-path="url(#SVGID_6_)" fill="#6F839C" d="M231.1,100.4h-16.6c-0.6,0-1-0.4-1-1s0.4-1,1-1h16.6c1.8,0,2.5-1.3,2.5-2.6
					c0-1.3-0.8-2.6-2.5-2.6c-2.1,0-3.4,0-4.4,0c-1.6,0-2.7,0-5.1,0c-0.2,0-0.4-0.1-0.6-0.2c-3.8-3-8-4.5-12.4-4.5h-9.5
					c-0.6,0-1-0.4-1-1s0.4-1,1-1h9.5c4.8,0,9.3,1.6,13.4,4.7c2.2,0,3.2,0,4.7,0c1.1,0,2.4,0,4.4,0c3,0,4.5,2.3,4.5,4.6
					c0,1.2-0.4,2.3-1.1,3.1C234,99.6,232.9,100.4,231.1,100.4z"/>
			</g>
		</g>
	</g>
</g>
<g>
	<path fill="#3D4353" d="M147.5,152.7c4,0,7.7,1.5,10.7,4.1c0.4,0.4,0.4,0.9,0,1.2l-2.7,2.9c-0.4,0.4-0.7,0.4-1.1,0
		c-1.9-1.7-4.2-2.5-6.6-2.5c-5.5,0-9.8,4.7-9.8,10.2c0,5.4,4.3,10.1,9.9,10.1c2.5,0,4.3-0.7,5.2-1.1v-3.7h-3.5
		c-0.5,0-0.8-0.4-0.8-0.8v-3.5c0-0.5,0.4-0.8,0.8-0.8h8.4c0.4,0,0.8,0.4,0.8,0.8v11.2c0,0.4-0.2,0.6-0.4,0.7c0,0-4.5,2.9-10.9,2.9
		c-8.7,0-15.8-6.9-15.8-15.7C131.7,159.8,138.7,152.7,147.5,152.7z"/>
	<path fill="#3D4353" d="M163.3,167.2c0-0.5,0.4-0.8,0.8-0.8h1.7c0.4,0,0.7,0.2,0.8,0.6l0.6,1.7c0.6-0.9,2.2-2.7,5-2.7
		c2.1,0,3.9,0.7,3.4,1.8l-1.6,2.9c-0.2,0.4-0.7,0.6-1,0.4c-0.1,0-0.8-0.3-1.3-0.3c-1.8,0-2.8,1.2-3.1,1.8v10.6c0,0.6-0.4,0.8-1,0.8
		h-3.4c-0.4,0-0.8-0.4-0.8-0.8V167.2z"/>
	<path fill="#3D4353" d="M185.8,165.9c5,0,9,4.2,9,9.2c0,5-4,9.3-9,9.3s-9-4.2-9-9.3C176.8,170.1,180.9,165.9,185.8,165.9z
		 M185.8,179.6c2.3,0,4.2-2,4.2-4.5c0-2.5-1.9-4.4-4.2-4.4c-2.4,0-4.2,2-4.2,4.4C181.6,177.6,183.5,179.6,185.8,179.6z"/>
	<path fill="#3D4353" d="M196.9,167.4c-0.3-0.6,0.1-1,0.7-1h3.2c0.3,0,0.7,0.2,0.8,0.5l2.6,7.9h0l4.5-8.4c0.1-0.2,0.3-0.4,0.7-0.4
		h0.4c0.4,0,0.6,0.2,0.7,0.4l4.4,8.4h0l2.6-7.9c0.2-0.5,0.5-0.5,1-0.5h2.9c0.6,0,1,0.4,0.8,1l-5.5,16.5c-0.1,0.3-0.4,0.5-0.8,0.5
		h-0.2c-0.4,0-0.6-0.2-0.7-0.4l-5.5-10.2h0l-5.5,10.2c-0.1,0.2-0.4,0.4-0.7,0.4h-0.2c-0.4,0-0.7-0.2-0.7-0.5L196.9,167.4z"/>
	<path fill="#6F839C" d="M233.2,167.5c-0.3-0.6,0.1-1.1,0.7-1.1h4c0.4,0,0.6,0.2,0.7,0.5l4.4,9.9h0l4.4-9.9c0.2-0.4,0.5-0.5,1.1-0.5
		h3.5c0.7,0,1.1,0.6,0.7,1.1l-13.4,29.1c-0.1,0.3-0.4,0.5-0.7,0.5h-3.8c-0.7,0-1.1-0.6-0.7-1.2l6.2-13.2L233.2,167.5z"/>
	<path fill="#6F839C" d="M263.5,165.9c5,0,9,4.2,9,9.2c0,5-4,9.3-9,9.3s-9-4.2-9-9.3C254.5,170.1,258.5,165.9,263.5,165.9z
		 M263.5,179.6c2.3,0,4.2-2,4.2-4.5c0-2.5-1.9-4.4-4.2-4.4c-2.4,0-4.2,2-4.2,4.4C259.3,177.6,261.1,179.6,263.5,179.6z"/>
	<path fill="#6F839C" d="M276.1,167.2c0-0.5,0.4-0.8,0.8-0.8h3.6c0.4,0,0.8,0.4,0.8,0.8v8.7c0,2.3,1.2,3.8,3.2,3.8
		c1.8,0,3.2-1.7,3.5-3.3v-9.1c0-0.7,0.3-0.8,1-0.8h3.3c0.4,0,0.8,0.4,0.8,0.8v15.9c0,0.4-0.4,0.8-0.8,0.8h-1.6
		c-0.4,0-0.7-0.3-0.8-0.7l-0.5-1.4c-0.8,0.7-2.4,2.5-5.9,2.5c-5.4,0-7.4-4.2-7.4-8.7V167.2z"/>
	<path fill="#6F839C" d="M298.5,167.2c0-0.5,0.4-0.8,0.8-0.8h1.7c0.4,0,0.7,0.2,0.8,0.6l0.6,1.7c0.6-0.9,2.2-2.7,5-2.7
		c2.1,0,3.9,0.7,3.4,1.8l-1.6,2.9c-0.2,0.4-0.7,0.6-1,0.4c-0.1,0-0.8-0.3-1.3-0.3c-1.8,0-2.8,1.2-3.1,1.8v10.6c0,0.6-0.4,0.8-1,0.8
		h-3.4c-0.4,0-0.8-0.4-0.8-0.8V167.2z"/>
	<path fill="#6F839C" d="M101.1,232.3l1.6-2.7c0.4-0.6,1.1-0.6,1.5-0.3c0.2,0.1,3.8,2.7,6.6,2.7c2.3,0,4-1.5,4-3.4
		c0-2.2-1.9-3.8-5.6-5.3c-4.1-1.7-8.3-4.3-8.3-9.5c0-3.9,2.9-8.4,9.9-8.4c4.5,0,7.9,2.3,8.8,2.9c0.4,0.3,0.6,1,0.3,1.4l-1.7,2.5
		c-0.4,0.5-1,0.9-1.5,0.5c-0.4-0.2-3.7-2.4-6.1-2.4c-2.5,0-3.9,1.7-3.9,3.1c0,2.1,1.6,3.5,5.2,4.9c4.3,1.7,9.2,4.3,9.2,9.9
		c0,4.5-3.9,8.7-10.1,8.7c-5.5,0-8.8-2.6-9.7-3.4C100.9,233.2,100.7,233,101.1,232.3z"/>
	<path fill="#6F839C" d="M130.7,225.5c1.8,0,3.2,0.5,3.2,0.5c0-2.2-0.7-3-2.3-3c-1.6,0-3.9,0.4-4.9,0.7c-0.6,0.2-0.9-0.2-1-0.8
		l-0.4-2.3c-0.1-0.7,0.2-1,0.6-1.1c0.4-0.1,3.2-0.8,6-0.8c5.5,0,6.8,2.9,6.8,7.6v9.5c0,0.4-0.4,0.8-0.8,0.8h-1.6
		c-0.3,0-0.5-0.1-0.7-0.6l-0.5-1.2c-1,0.9-2.6,2.2-5.4,2.2c-3.5,0-5.9-2.3-5.9-6C123.7,227.9,126.2,225.5,130.7,225.5z M130.8,233.3
		c1.4,0,2.8-1.2,3-1.7v-2.4c0,0-1.2-0.5-2.5-0.5c-1.7,0-2.9,1-2.9,2.4C128.5,232.4,129.5,233.3,130.8,233.3z"/>
	<path fill="#6F839C" d="M149.5,225.5c1.8,0,3.2,0.5,3.2,0.5c0-2.2-0.7-3-2.3-3c-1.6,0-3.9,0.4-4.9,0.7c-0.6,0.2-0.9-0.2-1-0.8
		l-0.4-2.3c-0.1-0.7,0.2-1,0.6-1.1c0.4-0.1,3.2-0.8,6-0.8c5.5,0,6.8,2.9,6.8,7.6v9.5c0,0.4-0.4,0.8-0.8,0.8H155
		c-0.3,0-0.5-0.1-0.7-0.6l-0.5-1.2c-1,0.9-2.6,2.2-5.4,2.2c-3.5,0-5.9-2.3-5.9-6C142.5,227.9,145,225.5,149.5,225.5z M149.6,233.3
		c1.4,0,2.8-1.2,3-1.7v-2.4c0,0-1.2-0.5-2.5-0.5c-1.7,0-2.9,1-2.9,2.4C147.3,232.4,148.2,233.3,149.6,233.3z"/>
	<path fill="#6F839C" d="M161.2,232.3l1.6-2.7c0.4-0.6,1.1-0.6,1.5-0.3c0.2,0.1,3.8,2.7,6.6,2.7c2.3,0,4-1.5,4-3.4
		c0-2.2-1.9-3.8-5.6-5.3c-4.1-1.7-8.3-4.3-8.3-9.5c0-3.9,2.9-8.4,9.9-8.4c4.5,0,7.9,2.3,8.8,2.9c0.4,0.3,0.6,1,0.3,1.4l-1.7,2.5
		c-0.4,0.5-1,0.9-1.5,0.5c-0.4-0.2-3.7-2.4-6.1-2.4c-2.5,0-3.9,1.7-3.9,3.1c0,2.1,1.6,3.5,5.2,4.9c4.3,1.7,9.2,4.3,9.2,9.9
		c0,4.5-3.9,8.7-10.1,8.7c-5.5,0-8.8-2.6-9.7-3.4C161,233.2,160.8,233,161.2,232.3z"/>
	<path fill="#6F839C" d="M196.5,206.7c0-0.4,0.4-0.8,0.8-0.8h10.1c5.2,0,9.3,3.5,9.3,8.1c0,3.4-2.8,6-4.8,7c2.3,0.7,5.7,3.1,5.7,7.2
		c0,4.9-4.2,8.5-9.6,8.5h-10.6c-0.5,0-0.8-0.4-0.8-0.8V206.7z M206.8,218.8c2.2,0,3.8-1.8,3.8-4s-1.5-3.7-3.8-3.7h-4.7v7.7H206.8z
		 M207.5,231.4c2.2,0,4-1.7,4-4c0-2.2-2.2-3.8-4.5-3.8h-4.8v7.8H207.5z"/>
	<path fill="#6F839C" d="M221.2,219.9c0-0.5,0.4-0.8,0.8-0.8h3.6c0.4,0,0.8,0.4,0.8,0.8v8.7c0,2.3,1.2,3.8,3.2,3.8
		c1.8,0,3.2-1.7,3.5-3.3v-9.1c0-0.7,0.3-0.8,1-0.8h3.3c0.4,0,0.8,0.4,0.8,0.8v15.9c0,0.4-0.4,0.8-0.8,0.8h-1.6
		c-0.4,0-0.7-0.3-0.8-0.7l-0.5-1.4c-0.8,0.7-2.4,2.5-5.9,2.5c-5.4,0-7.4-4.2-7.4-8.7V219.9z"/>
	<path fill="#6F839C" d="M242.6,234.5l1.2-2.4c0.2-0.4,0.6-0.5,1-0.3c0,0,2,1.1,4,1.1c0.9,0,1.5-0.4,1.5-1.1c0-0.8-0.6-1.3-2.9-2.2
		c-3.4-1.3-5-3.1-5-5.8s2-5.2,6.5-5.2c2.6,0,4.5,0.7,5.4,1.4c0.4,0.3,0.6,0.7,0.4,1.2l-1.1,2.2c-0.2,0.4-0.7,0.4-1.1,0.3
		c0,0-2-0.9-3.6-0.9c-1.1,0-1.5,0.4-1.5,1c0,0.8,0.8,1.1,2.4,1.7c3.4,1.3,5.9,2.8,5.9,6.2c0,2.9-2.5,5.4-7,5.4
		c-2.9,0-4.9-0.9-5.8-1.6C242.6,235.2,242.5,234.9,242.6,234.5z"/>
	<path fill="#6F839C" d="M259.2,209.8c0-1.7,1.3-3,3-3c1.7,0,3.1,1.4,3.1,3c0,1.7-1.4,3-3.1,3C260.5,212.8,259.2,211.5,259.2,209.8z
		 M259.6,219.9c0-0.5,0.4-0.8,0.8-0.8h3.6c0.4,0,0.8,0.4,0.8,0.8v15.9c0,0.4-0.4,0.8-0.8,0.8h-3.6c-0.4,0-0.8-0.4-0.8-0.8V219.9z"/>
	<path fill="#6F839C" d="M270.2,219.9c0-0.5,0.4-0.8,0.8-0.8h1.7c0.4,0,0.6,0.2,0.7,0.5l0.6,1.6c0.7-0.7,2.8-2.6,6.2-2.6
		c5.6,0,7.8,4.2,7.8,8.7v8.4c0,0.4-0.4,0.8-0.8,0.8h-3.6c-0.5,0-0.8-0.4-0.8-0.8v-8.7c0-2.3-1.2-3.7-3.3-3.7c-2.3,0-3.7,1.6-4.1,2.8
		v9.7c0,0.6-0.3,0.8-1.1,0.8H271c-0.4,0-0.8-0.4-0.8-0.8V219.9z"/>
	<path fill="#6F839C" d="M300.6,218.6c4.5,0,8.2,3.4,8.2,8.2c0,0.3,0,0.9-0.1,1.2c0,0.4-0.4,0.7-0.8,0.7h-11.2
		c0.1,1.8,1.7,3.8,4.2,3.8c1.4,0,2.6-0.5,3.4-1.1c0.4-0.3,0.8-0.4,1.1,0l1.8,2.1c0.3,0.3,0.4,0.8,0,1.1c-1.4,1.4-3.7,2.4-6.5,2.4
		c-5.3,0-9-4.2-9-9.2C291.7,222.9,295.4,218.6,300.6,218.6z M303.7,225.6c-0.1-1.6-1.5-3-3.2-3c-1.8,0-3.2,1.3-3.4,3H303.7z"/>
	<path fill="#6F839C" d="M311.5,234.5l1.2-2.4c0.2-0.4,0.6-0.5,1-0.3c0,0,2,1.1,4,1.1c0.9,0,1.5-0.4,1.5-1.1c0-0.8-0.6-1.3-2.9-2.2
		c-3.4-1.3-5-3.1-5-5.8s2-5.2,6.5-5.2c2.6,0,4.5,0.7,5.4,1.4c0.4,0.3,0.6,0.7,0.4,1.2l-1.1,2.2c-0.2,0.4-0.7,0.4-1.1,0.3
		c0,0-2-0.9-3.6-0.9c-1.1,0-1.5,0.4-1.5,1c0,0.8,0.8,1.1,2.4,1.7c3.4,1.3,5.9,2.8,5.9,6.2c0,2.9-2.5,5.4-7,5.4
		c-2.9,0-4.9-0.9-5.8-1.6C311.5,235.2,311.4,234.9,311.5,234.5z"/>
	<path fill="#6F839C" d="M327.5,234.5l1.2-2.4c0.2-0.4,0.6-0.5,1-0.3c0,0,2,1.1,4,1.1c0.9,0,1.5-0.4,1.5-1.1c0-0.8-0.6-1.3-2.9-2.2
		c-3.4-1.3-5-3.1-5-5.8s2-5.2,6.5-5.2c2.6,0,4.5,0.7,5.4,1.4c0.4,0.3,0.6,0.7,0.4,1.2l-1.1,2.2c-0.2,0.4-0.7,0.4-1.1,0.3
		c0,0-2-0.9-3.6-0.9c-1.1,0-1.5,0.4-1.5,1c0,0.8,0.8,1.1,2.4,1.7c3.4,1.3,5.9,2.8,5.9,6.2c0,2.9-2.5,5.4-7,5.4
		c-2.9,0-4.9-0.9-5.8-1.6C327.5,235.2,327.4,234.9,327.5,234.5z"/>
</g>
</svg>
