<?xml version="1.0" encoding="utf-8"?>
<!-- Generator: Adobe Illustrator 20.0.0, SVG Export Plug-In . SVG Version: 6.00 Build 0)  -->
<svg version="1.1" id="Capa_1" xmlns="http://www.w3.org/2000/svg" xmlns:xlink="http://www.w3.org/1999/xlink" x="0px" y="0px"
	 viewBox="0 0 512 512" style="enable-background:new 0 0 512 512;" xml:space="preserve">
<style type="text/css">
	.st0{fill:#FFFFFF;}
</style>
<g>
	<path class="st0" d="M511.9,247.6C507.6,113.1,398.9,4.4,264.4,0.1C191.2-2.2,122.7,25.7,72.1,77.9c-48.6,50.2-74.2,116.4-72,186.4
		c4.3,134.5,113,243.2,247.5,247.5c2.8,0.1,5.6,0.1,8.4,0.1c69.9,0,135.2-27.7,183.9-77.9C488.5,383.9,514.1,317.7,511.9,247.6z
		 M401.2,396.6c-38.4,39.7-90,61.5-145.2,61.5c-2.2,0-4.4,0-6.6-0.1C143.2,454.6,57.4,368.8,54,262.6
		c-1.8-55.3,18.4-107.6,56.8-147.2c38.4-39.7,90-61.5,145.2-61.5c2.2,0,4.4,0,6.6,0.1c106.1,3.4,191.9,89.2,195.3,195.3
		C459.7,304.7,439.6,356.9,401.2,396.6z"/>
	<path class="st0" d="M347.6,239.4l-126.3-90.6c-13.5-9.7-32.2,0-32.2,16.6v181.2c0,16.6,18.8,26.2,32.2,16.6l126.3-90.6
		C358.9,264.4,358.9,247.6,347.6,239.4z"/>
</g>
</svg>
