<?xml version="1.0" encoding="utf-8"?>
<!-- Generator: Adobe Illustrator 21.0.2, SVG Export Plug-In . SVG Version: 6.00 Build 0)  -->
<svg version="1.1" id="Layer_1" xmlns="http://www.w3.org/2000/svg" xmlns:xlink="http://www.w3.org/1999/xlink" x="0px" y="0px"
	 viewBox="0 0 439 297.7" enable-background="new 0 0 439 297.7" xml:space="preserve">
<g>
	<defs>
		<rect id="SVGID_13_" x="179.9" y="46.8" width="2" height="69.4"/>
	</defs>
	<clipPath id="SVGID_2_">
		<use xlink:href="#SVGID_13_"  overflow="visible"/>
	</clipPath>
	<g clip-path="url(#SVGID_2_)" enable-background="new    ">
		<g>
			<defs>
				<rect id="SVGID_15_" x="179.7" y="46.5" width="3" height="70"/>
			</defs>
			<clipPath id="SVGID_4_">
				<use xlink:href="#SVGID_15_"  overflow="visible"/>
			</clipPath>
			<g clip-path="url(#SVGID_4_)">
				<defs>
					<path id="SVGID_17_" d="M180.8,116.2c-0.5,0-1-0.4-1-1V47.8c0-0.5,0.4-1,1-1c0.5,0,1,0.4,1,1v67.4
						C181.8,115.8,181.4,116.2,180.8,116.2"/>
				</defs>
				<clipPath id="SVGID_6_">
					<use xlink:href="#SVGID_17_"  overflow="visible"/>
				</clipPath>
				<g clip-path="url(#SVGID_6_)">
					<defs>
						<rect id="SVGID_19_" x="179.7" y="46.5" width="3" height="70"/>
					</defs>
					<clipPath id="SVGID_8_">
						<use xlink:href="#SVGID_19_"  overflow="visible"/>
					</clipPath>
					<rect x="174.9" y="41.8" clip-path="url(#SVGID_8_)" fill="#75839D" width="12" height="79.4"/>
				</g>
			</g>
		</g>
	</g>
</g>
<g>
	<defs>
		<rect id="SVGID_21_" x="256.8" y="46.8" width="2" height="69.4"/>
	</defs>
	<clipPath id="SVGID_10_">
		<use xlink:href="#SVGID_21_"  overflow="visible"/>
	</clipPath>
	<g clip-path="url(#SVGID_10_)" enable-background="new    ">
		<g>
			<defs>
				<rect id="SVGID_23_" x="256.7" y="46.5" width="3" height="70"/>
			</defs>
			<clipPath id="SVGID_12_">
				<use xlink:href="#SVGID_23_"  overflow="visible"/>
			</clipPath>
			<g clip-path="url(#SVGID_12_)">
				<defs>
					<path id="SVGID_25_" d="M257.8,116.2c-0.5,0-1-0.4-1-1V47.8c0-0.5,0.4-1,1-1c0.5,0,1,0.4,1,1v67.4
						C258.8,115.8,258.3,116.2,257.8,116.2"/>
				</defs>
				<clipPath id="SVGID_14_">
					<use xlink:href="#SVGID_25_"  overflow="visible"/>
				</clipPath>
				<g clip-path="url(#SVGID_14_)">
					<defs>
						<rect id="SVGID_27_" x="256.7" y="46.5" width="3" height="70"/>
					</defs>
					<clipPath id="SVGID_16_">
						<use xlink:href="#SVGID_27_"  overflow="visible"/>
					</clipPath>
					<rect x="251.8" y="41.8" clip-path="url(#SVGID_16_)" fill="#75839D" width="12" height="79.4"/>
				</g>
			</g>
		</g>
	</g>
</g>
<g>
	<defs>
		<path id="SVGID_29_" d="M219.9,66.7h-28.7c-0.5,0-0.9-0.3-1-0.8c-0.1-0.4-0.1-0.7-0.1-1.1c0-3.3,2.7-6.1,6.1-6.1
			c0.6,0,1.3,0.1,1.9,0.3c1.1-3.4,4.3-5.8,8.1-5.8c3.3,0,6.2,1.9,7.6,4.8c0.5-0.1,0.9-0.2,1.4-0.2c3.3,0,6.1,2.7,6.1,6.1
			c0,0.7-0.1,1.4-0.4,2.1C220.7,66.4,220.3,66.7,219.9,66.7 M192.1,64.7h27.1c0.1-0.3,0.1-0.5,0.1-0.8c0-2.2-1.8-4.1-4.1-4.1
			c-0.6,0-1.1,0.1-1.6,0.3c-0.3,0.1-0.5,0.1-0.8,0s-0.4-0.3-0.5-0.6c-0.9-2.6-3.4-4.4-6.1-4.4c-3.2,0-5.9,2.3-6.4,5.4
			c-0.1,0.3-0.3,0.6-0.6,0.7c-0.3,0.1-0.6,0.1-0.9,0c-0.6-0.4-1.3-0.6-2-0.6C193.9,60.7,192.1,62.5,192.1,64.7"/>
	</defs>
	<clipPath id="SVGID_18_">
		<use xlink:href="#SVGID_29_"  overflow="visible"/>
	</clipPath>
	<rect x="185.1" y="48.2" clip-path="url(#SVGID_18_)" fill="#75839D" width="41.1" height="23.4"/>
</g>
<g>
	<defs>
		<path id="SVGID_31_" d="M210.9,116.2c-0.5,0-1-0.4-1-1V93.7h-29.1c-0.5,0-1-0.4-1-1s0.4-1,1-1h30.1c0.5,0,1,0.4,1,1v22.5
			C211.9,115.8,211.5,116.2,210.9,116.2"/>
	</defs>
	<clipPath id="SVGID_20_">
		<use xlink:href="#SVGID_31_"  overflow="visible"/>
	</clipPath>
	<rect x="174.9" y="86.8" clip-path="url(#SVGID_20_)" fill="#75839D" width="42.1" height="34.5"/>
</g>
<g>
	<defs>
		<path id="SVGID_33_" d="M235.2,116.2c-0.5,0-1-0.4-1-1V63.9c0-0.5,0.4-1,1-1h22.6c0.5,0,1,0.4,1,1c0,0.5-0.4,1-1,1h-21.6v50.3
			C236.2,115.8,235.8,116.2,235.2,116.2"/>
	</defs>
	<clipPath id="SVGID_22_">
		<use xlink:href="#SVGID_33_"  overflow="visible"/>
	</clipPath>
	<rect x="229.2" y="57.9" clip-path="url(#SVGID_22_)" fill="#75839D" width="34.6" height="63.3"/>
</g>
<g>
	<defs>
		<path id="SVGID_35_" d="M241.6,64.9c-0.5,0-1-0.4-1-1v-5.5c0-0.5,0.4-1,1-1h16.2c0.5,0,1,0.4,1,1c0,0.5-0.4,1-1,1h-15.2v4.5
			C242.6,64.4,242.2,64.9,241.6,64.9"/>
	</defs>
	<clipPath id="SVGID_24_">
		<use xlink:href="#SVGID_35_"  overflow="visible"/>
	</clipPath>
	<rect x="235.6" y="52.4" clip-path="url(#SVGID_24_)" fill="#75839D" width="28.2" height="17.5"/>
</g>
<g>
	<defs>
		<path id="SVGID_37_" d="M195.9,93.7c-0.5,0-1-0.4-1-1v-3.9h-7.2v3.9c0,0.5-0.4,1-1,1c-0.5,0-1-0.4-1-1v-4.8c0-0.5,0.4-1,1-1h9.2
			c0.5,0,1,0.4,1,1v4.8C196.9,93.3,196.4,93.7,195.9,93.7"/>
	</defs>
	<clipPath id="SVGID_26_">
		<use xlink:href="#SVGID_37_"  overflow="visible"/>
	</clipPath>
	<rect x="180.7" y="81.9" clip-path="url(#SVGID_26_)" fill="#75839D" width="21.2" height="16.8"/>
</g>
<g>
	<defs>
		<path id="SVGID_39_" d="M200.6,93.7c-0.5,0-1-0.4-1-1V80.2c0-0.5,0.4-1,1-1h34.6c0.5,0,1,0.4,1,1s-0.4,1-1,1h-33.7v11.6
			C201.6,93.3,201.1,93.7,200.6,93.7"/>
	</defs>
	<clipPath id="SVGID_28_">
		<use xlink:href="#SVGID_39_"  overflow="visible"/>
	</clipPath>
	<rect x="194.6" y="74.2" clip-path="url(#SVGID_28_)" fill="#75839D" width="46.6" height="24.6"/>
</g>
<g>
	<defs>
		<path id="SVGID_41_" d="M222,81.2c-0.5,0-1-0.4-1-1V75h-14.6v5.1c0,0.5-0.4,1-1,1c-0.5,0-1-0.4-1-1V74c0-0.5,0.4-1,1-1H222
			c0.5,0,1,0.4,1,1v6.1C223,80.7,222.5,81.2,222,81.2"/>
	</defs>
	<clipPath id="SVGID_30_">
		<use xlink:href="#SVGID_41_"  overflow="visible"/>
	</clipPath>
	<rect x="199.4" y="68" clip-path="url(#SVGID_30_)" fill="#75839D" width="28.5" height="18.1"/>
</g>
<g>
	<defs>
		<path id="SVGID_43_" d="M191.3,88c-0.5,0-1-0.4-1-1V76.2c0-0.5,0.4-1,1-1s1,0.4,1,1V87C192.3,87.6,191.8,88,191.3,88"/>
	</defs>
	<clipPath id="SVGID_32_">
		<use xlink:href="#SVGID_43_"  overflow="visible"/>
	</clipPath>
	<rect x="185.3" y="70.2" clip-path="url(#SVGID_32_)" fill="#75839D" width="12" height="22.8"/>
</g>
<g>
	<defs>
		<path id="SVGID_45_" d="M257.8,72.3h-22.6c-0.5,0-1-0.4-1-1s0.4-1,1-1h22.6c0.5,0,1,0.4,1,1S258.4,72.3,257.8,72.3"/>
	</defs>
	<clipPath id="SVGID_34_">
		<use xlink:href="#SVGID_45_"  overflow="visible"/>
	</clipPath>
	<rect x="229.2" y="65.3" clip-path="url(#SVGID_34_)" fill="#75839D" width="34.6" height="12"/>
</g>
<g>
	<defs>
		<path id="SVGID_47_" d="M257.8,79.6h-22.6c-0.5,0-1-0.4-1-1s0.4-1,1-1h22.6c0.5,0,1,0.4,1,1S258.4,79.6,257.8,79.6"/>
	</defs>
	<clipPath id="SVGID_36_">
		<use xlink:href="#SVGID_47_"  overflow="visible"/>
	</clipPath>
	<rect x="229.2" y="72.7" clip-path="url(#SVGID_36_)" fill="#75839D" width="34.6" height="12"/>
</g>
<g>
	<defs>
		<path id="SVGID_49_" d="M257.8,87h-22.6c-0.5,0-1-0.4-1-1c0-0.5,0.4-1,1-1h22.6c0.5,0,1,0.4,1,1C258.8,86.6,258.4,87,257.8,87"/>
	</defs>
	<clipPath id="SVGID_38_">
		<use xlink:href="#SVGID_49_"  overflow="visible"/>
	</clipPath>
	<rect x="229.2" y="80" clip-path="url(#SVGID_38_)" fill="#75839D" width="34.6" height="12"/>
</g>
<g>
	<defs>
		<path id="SVGID_51_" d="M257.8,94.4h-22.6c-0.5,0-1-0.4-1-1s0.4-1,1-1h22.6c0.5,0,1,0.4,1,1S258.4,94.4,257.8,94.4"/>
	</defs>
	<clipPath id="SVGID_40_">
		<use xlink:href="#SVGID_51_"  overflow="visible"/>
	</clipPath>
	<rect x="229.2" y="87.4" clip-path="url(#SVGID_40_)" fill="#75839D" width="34.6" height="12"/>
</g>
<g>
	<defs>
		<path id="SVGID_53_" d="M257.8,101.8h-22.6c-0.5,0-1-0.4-1-1c0-0.5,0.4-1,1-1h22.6c0.5,0,1,0.4,1,1
			C258.8,101.3,258.4,101.8,257.8,101.8"/>
	</defs>
	<clipPath id="SVGID_42_">
		<use xlink:href="#SVGID_53_"  overflow="visible"/>
	</clipPath>
	<rect x="229.2" y="94.8" clip-path="url(#SVGID_42_)" fill="#75839D" width="34.6" height="12"/>
</g>
<g>
	<defs>
		<path id="SVGID_55_" d="M257.8,109.2h-22.6c-0.5,0-1-0.4-1-1c0-0.5,0.4-1,1-1h22.6c0.5,0,1,0.4,1,1
			C258.8,108.7,258.4,109.2,257.8,109.2"/>
	</defs>
	<clipPath id="SVGID_44_">
		<use xlink:href="#SVGID_55_"  overflow="visible"/>
	</clipPath>
	<rect x="229.2" y="102.2" clip-path="url(#SVGID_44_)" fill="#75839D" width="34.6" height="12"/>
</g>
<g>
	<defs>
		<path id="SVGID_57_" d="M210.9,101.2H181c-0.5,0-1-0.4-1-1c0-0.5,0.4-1,1-1h29.9c0.5,0,1,0.4,1,1
			C211.9,100.8,211.5,101.2,210.9,101.2"/>
	</defs>
	<clipPath id="SVGID_46_">
		<use xlink:href="#SVGID_57_"  overflow="visible"/>
	</clipPath>
	<rect x="175" y="94.3" clip-path="url(#SVGID_46_)" fill="#75839D" width="41.9" height="12"/>
</g>
<g>
	<defs>
		<path id="SVGID_59_" d="M209.4,108.7h-29.9c-0.5,0-1-0.4-1-1s0.4-1,1-1h29.9c0.5,0,1,0.4,1,1S210,108.7,209.4,108.7"/>
	</defs>
	<clipPath id="SVGID_48_">
		<use xlink:href="#SVGID_59_"  overflow="visible"/>
	</clipPath>
	<rect x="173.5" y="101.7" clip-path="url(#SVGID_48_)" fill="#75839D" width="41.9" height="12"/>
</g>
<g>
	<defs>
		<path id="SVGID_61_" d="M210.9,116.2H181c-0.5,0-1-0.4-1-1s0.4-1,1-1h29.9c0.5,0,1,0.4,1,1S211.5,116.2,210.9,116.2"/>
	</defs>
	<clipPath id="SVGID_50_">
		<use xlink:href="#SVGID_61_"  overflow="visible"/>
	</clipPath>
	<rect x="175" y="109.2" clip-path="url(#SVGID_50_)" fill="#75839D" width="41.9" height="12"/>
</g>
<path fill="#3D4353" d="M216,76.4c-0.3,0-0.5-0.1-0.7-0.3c-0.4-0.4-0.4-1,0-1.4l32.2-32.2c0.4-0.4,1-0.4,1.4,0c0.4,0.4,0.4,1,0,1.4
	l-32.2,32.2C216.5,76.3,216.2,76.4,216,76.4z"/>
<path fill="#3D4353" d="M248.1,63.5c-0.6,0-1-0.4-1-1V44.2h-18.3c-0.6,0-1-0.4-1-1s0.4-1,1-1h19.3c0.6,0,1,0.4,1,1v19.3
	C249.1,63.1,248.7,63.5,248.1,63.5z"/>
<path fill="#3D4353" d="M180.7,38.6c-0.6,0-1-0.4-1-1v-4.1c0-0.6,0.4-1,1-1h4.7c0.6,0,1,0.4,1,1s-0.4,1-1,1h-3.7v3.1
	C181.7,38.1,181.3,38.6,180.7,38.6z"/>
<path fill="#3D4353" d="M257.8,39.4c-0.6,0-1-0.4-1-1v-3.8H253c-0.6,0-1-0.4-1-1s0.4-1,1-1h4.8c0.6,0,1,0.4,1,1v4.8
	C258.8,38.9,258.3,39.4,257.8,39.4z"/>
<path fill="#3D4353" d="M196.7,34.5h-3.2c-0.6,0-1-0.4-1-1s0.4-1,1-1h3.2c0.6,0,1,0.4,1,1S197.2,34.5,196.7,34.5z"/>
<path fill="#3D4353" d="M207.9,34.5h-3.2c-0.6,0-1-0.4-1-1s0.4-1,1-1h3.2c0.6,0,1,0.4,1,1S208.5,34.5,207.9,34.5z"/>
<path fill="#3D4353" d="M220.8,34.5h-3.2c-0.6,0-1-0.4-1-1s0.4-1,1-1h3.2c0.6,0,1,0.4,1,1S221.4,34.5,220.8,34.5z"/>
<path fill="#3D4353" d="M233.7,34.5h-3.2c-0.6,0-1-0.4-1-1s0.4-1,1-1h3.2c0.6,0,1,0.4,1,1S234.2,34.5,233.7,34.5z"/>
<path fill="#3D4353" d="M244.9,34.5h-3.2c-0.6,0-1-0.4-1-1s0.4-1,1-1h3.2c0.6,0,1,0.4,1,1S245.5,34.5,244.9,34.5z"/>
<path fill="#3D4353" d="M220.8,111.9h-3.2c-0.6,0-1-0.4-1-1s0.4-1,1-1h3.2c0.6,0,1,0.4,1,1S221.4,111.9,220.8,111.9z"/>
<path fill="#3D4353" d="M233.7,111.9h-3.2c-0.6,0-1-0.4-1-1s0.4-1,1-1h3.2c0.6,0,1,0.4,1,1S234.2,111.9,233.7,111.9z"/>
<path fill="#3D4353" d="M244.9,111.9h-3.2c-0.6,0-1-0.4-1-1s0.4-1,1-1h3.2c0.6,0,1,0.4,1,1S245.5,111.9,244.9,111.9z"/>
<path fill="#3D4353" d="M257.8,111.9H253c-0.6,0-1-0.4-1-1s0.4-1,1-1h3.8v-3.8c0-0.6,0.4-1,1-1s1,0.4,1,1v4.8
	C258.8,111.5,258.3,111.9,257.8,111.9z"/>
<g>
	<path fill="#3D4353" d="M95.7,152.9H89c-0.5,0-0.8-0.4-0.8-0.8v-3.6c0-0.4,0.4-0.8,0.8-0.8h19.2c0.5,0,0.8,0.4,0.8,0.8v3.6
		c0,0.4-0.4,0.8-0.8,0.8h-6.7v24.6c0,0.4-0.4,0.8-0.8,0.8h-4.1c-0.4,0-0.8-0.4-0.8-0.8V152.9z"/>
	<path fill="#3D4353" d="M109.7,161.7c0-0.5,0.4-0.8,0.8-0.8h1.7c0.4,0,0.7,0.2,0.8,0.6l0.6,1.7c0.6-0.9,2.2-2.7,5-2.7
		c2.1,0,3.9,0.7,3.4,1.8l-1.6,2.9c-0.2,0.4-0.7,0.6-1,0.4c-0.1,0-0.8-0.3-1.3-0.3c-1.8,0-2.8,1.2-3.1,1.8v10.6c0,0.6-0.4,0.8-1,0.8
		h-3.4c-0.4,0-0.8-0.4-0.8-0.8V161.7z"/>
	<path fill="#3D4353" d="M130.4,167.3c1.8,0,3.2,0.5,3.2,0.5c0-2.2-0.7-3-2.3-3c-1.6,0-3.9,0.4-4.9,0.7c-0.6,0.2-0.9-0.2-1-0.8
		l-0.4-2.3c-0.1-0.7,0.2-1,0.6-1.1c0.4-0.1,3.2-0.8,6-0.8c5.5,0,6.8,2.9,6.8,7.6v9.5c0,0.4-0.4,0.8-0.8,0.8h-1.6
		c-0.3,0-0.5-0.1-0.7-0.6l-0.5-1.2c-1,0.9-2.6,2.2-5.4,2.2c-3.5,0-5.9-2.3-5.9-6C123.4,169.7,125.9,167.3,130.4,167.3z M130.5,175.1
		c1.4,0,2.8-1.2,3-1.7V171c0,0-1.2-0.5-2.5-0.5c-1.7,0-2.9,1-2.9,2.4C128.2,174.1,129.1,175.1,130.5,175.1z"/>
	<path fill="#3D4353" d="M143.4,161.7c0-0.5,0.4-0.8,0.8-0.8h1.7c0.4,0,0.6,0.2,0.7,0.5l0.6,1.6c0.7-0.7,2.8-2.6,6.2-2.6
		c5.6,0,7.8,4.2,7.8,8.7v8.4c0,0.4-0.4,0.8-0.8,0.8h-3.6c-0.5,0-0.8-0.4-0.8-0.8v-8.7c0-2.3-1.2-3.7-3.3-3.7c-2.3,0-3.7,1.6-4.1,2.8
		v9.7c0,0.6-0.3,0.8-1.1,0.8h-3.2c-0.4,0-0.8-0.4-0.8-0.8V161.7z"/>
	<path fill="#3D4353" d="M165.2,176.3l1.2-2.4c0.2-0.4,0.6-0.5,1-0.3c0,0,2,1.1,4,1.1c0.9,0,1.5-0.4,1.5-1.1c0-0.8-0.6-1.3-2.9-2.2
		c-3.4-1.3-5-3.1-5-5.8s2-5.2,6.5-5.2c2.6,0,4.5,0.7,5.4,1.4c0.4,0.3,0.6,0.7,0.4,1.2l-1.1,2.2c-0.2,0.4-0.7,0.4-1.1,0.3
		c0,0-2-0.9-3.6-0.9c-1.1,0-1.5,0.4-1.5,1c0,0.8,0.8,1.1,2.4,1.7c3.4,1.3,5.9,2.8,5.9,6.2c0,2.9-2.5,5.4-7,5.4
		c-2.9,0-4.9-0.9-5.8-1.6C165.2,177,165.1,176.6,165.2,176.3z"/>
	<path fill="#3D4353" d="M183.2,165.4h-1.5c-0.5,0-0.8-0.4-0.8-0.8v-2.9c0-0.5,0.4-0.8,0.8-0.8h1.5v-4.7c0-5.8,3.6-8.9,8.2-8.9
		c2.3,0,4.4,1,5.2,1.7c0.3,0.2,0.4,0.7,0.2,1l-1.5,2.8c-0.2,0.4-0.7,0.4-1.1,0.2c-0.6-0.4-1.6-0.9-2.6-0.9c-1.9,0-2.9,1.4-2.9,4v4.7
		h4.4c0.5,0,0.8,0.4,0.8,0.8v2.9c0,0.4-0.4,0.8-0.8,0.8h-4.4v12.1c0,0.4-0.4,0.8-0.8,0.8h-3.8c-0.4,0-0.8-0.4-0.8-0.8V165.4z"/>
	<path fill="#3D4353" d="M204.9,160.4c5,0,9,4.2,9,9.2c0,5-4,9.3-9,9.3s-9-4.2-9-9.3C195.9,164.6,200,160.4,204.9,160.4z
		 M204.9,174.1c2.3,0,4.2-2,4.2-4.5c0-2.5-1.9-4.4-4.2-4.4c-2.4,0-4.2,2-4.2,4.4C200.7,172.1,202.6,174.1,204.9,174.1z"/>
	<path fill="#3D4353" d="M217.8,161.7c0-0.5,0.4-0.8,0.8-0.8h1.7c0.4,0,0.7,0.2,0.8,0.6l0.6,1.7c0.6-0.9,2.2-2.7,5-2.7
		c2.1,0,3.9,0.7,3.4,1.8l-1.6,2.9c-0.2,0.4-0.7,0.6-1,0.4c-0.1,0-0.8-0.3-1.3-0.3c-1.8,0-2.8,1.2-3.1,1.8v10.6c0,0.6-0.4,0.8-1,0.8
		h-3.4c-0.4,0-0.8-0.4-0.8-0.8V161.7z"/>
	<path fill="#3D4353" d="M232.8,161.7c0-0.5,0.4-0.8,0.8-0.8h1.6c0.4,0,0.7,0.2,0.7,0.5l0.6,1.7c0.7-0.8,2.8-2.6,5.9-2.6
		c2.5,0,4.3,1,5.7,2.7c0.7-0.8,3-2.7,6.2-2.7c5.6,0,7.7,4.2,7.7,8.8v8.4c0,0.4-0.4,0.8-0.8,0.8h-3.6c-0.5,0-0.8-0.4-0.8-0.8v-8.7
		c0-2.3-1.1-3.7-3.3-3.7c-2.5,0-3.7,1.8-3.7,1.8s0,0.9,0,1.7v8.9c0,0.4-0.4,0.8-0.8,0.8h-3.3c-0.5,0-0.8-0.4-0.8-0.8v-8.7
		c0-2.3-1-3.7-3.2-3.7c-2.2,0-3.2,1.6-3.7,2.8v9.7c0,0.4-0.4,0.8-0.8,0.8h-3.6c-0.4,0-0.8-0.4-0.8-0.8V161.7z"/>
	<path fill="#6F839C" d="M274.5,162c-0.3-0.6,0.1-1.1,0.7-1.1h4c0.4,0,0.6,0.2,0.7,0.5l4.4,9.9h0l4.4-9.9c0.2-0.4,0.5-0.5,1.1-0.5
		h3.5c0.7,0,1.1,0.6,0.7,1.1L280.6,191c-0.1,0.3-0.4,0.5-0.7,0.5h-3.8c-0.7,0-1.1-0.6-0.7-1.2l6.2-13.2L274.5,162z"/>
	<path fill="#6F839C" d="M304.7,160.4c5,0,9,4.2,9,9.2c0,5-4,9.3-9,9.3s-9-4.2-9-9.3C295.7,164.6,299.8,160.4,304.7,160.4z
		 M304.7,174.1c2.3,0,4.2-2,4.2-4.5c0-2.5-1.9-4.4-4.2-4.4c-2.4,0-4.2,2-4.2,4.4C300.5,172.1,302.3,174.1,304.7,174.1z"/>
	<path fill="#6F839C" d="M317.3,161.7c0-0.5,0.4-0.8,0.8-0.8h3.6c0.4,0,0.8,0.4,0.8,0.8v8.7c0,2.3,1.2,3.8,3.2,3.8
		c1.8,0,3.2-1.7,3.5-3.3v-9.1c0-0.7,0.3-0.8,1-0.8h3.3c0.4,0,0.8,0.4,0.8,0.8v15.9c0,0.4-0.4,0.8-0.8,0.8H332
		c-0.4,0-0.7-0.3-0.8-0.7l-0.5-1.4c-0.8,0.7-2.4,2.5-5.9,2.5c-5.4,0-7.4-4.2-7.4-8.7V161.7z"/>
	<path fill="#6F839C" d="M339.7,161.7c0-0.5,0.4-0.8,0.8-0.8h1.7c0.4,0,0.7,0.2,0.8,0.6l0.6,1.7c0.6-0.9,2.2-2.7,5-2.7
		c2.1,0,3.9,0.7,3.4,1.8l-1.6,2.9c-0.2,0.4-0.7,0.6-1,0.4c-0.1,0-0.8-0.3-1.3-0.3c-1.8,0-2.8,1.2-3.1,1.8v10.6c0,0.6-0.4,0.8-1,0.8
		h-3.4c-0.4,0-0.8-0.4-0.8-0.8V161.7z"/>
	<path fill="#6F839C" d="M133.6,201.2c0-0.4,0.4-0.8,0.8-0.8h17.9c0.5,0,0.8,0.4,0.8,0.8v3.6c0,0.4-0.4,0.8-0.8,0.8h-13v7.2h10.8
		c0.4,0,0.8,0.4,0.8,0.8v3.6c0,0.5-0.4,0.8-0.8,0.8h-10.8v7.7h13c0.5,0,0.8,0.4,0.8,0.8v3.6c0,0.4-0.4,0.8-0.8,0.8h-17.9
		c-0.5,0-0.8-0.4-0.8-0.8V201.2z"/>
	<path fill="#6F839C" d="M157.3,214.4c0-0.5,0.4-0.8,0.8-0.8h1.7c0.4,0,0.6,0.2,0.7,0.5l0.6,1.6c0.7-0.7,2.8-2.6,6.2-2.6
		c5.6,0,7.8,4.2,7.8,8.7v8.4c0,0.4-0.4,0.8-0.8,0.8h-3.6c-0.5,0-0.8-0.4-0.8-0.8v-8.7c0-2.3-1.2-3.7-3.3-3.7c-2.3,0-3.7,1.6-4.1,2.8
		v9.7c0,0.6-0.3,0.8-1.1,0.8h-3.2c-0.4,0-0.8-0.4-0.8-0.8V214.4z"/>
	<path fill="#6F839C" d="M180.9,218.1h-1.5c-0.4,0-0.8-0.4-0.8-0.8v-2.9c0-0.5,0.4-0.8,0.8-0.8h1.5v-4.9c0-0.4,0.4-0.8,0.8-0.8
		l3.6,0c0.4,0,0.8,0.4,0.8,0.8v4.9h3.9c0.5,0,0.8,0.4,0.8,0.8v2.9c0,0.4-0.4,0.8-0.8,0.8h-3.9v7c0,1.2,0.7,1.4,1.4,1.4
		c0.7,0,1.7-0.3,2.2-0.5c0.5-0.2,0.8,0,1,0.5l0.9,2.8c0.2,0.4,0,0.9-0.5,1.1c-0.2,0.1-3.1,1.1-5.2,1.1c-3.4,0-4.9-2.1-4.9-5.7V218.1
		z"/>
	<path fill="#6F839C" d="M202.8,213.1c4.5,0,8.2,3.4,8.2,8.2c0,0.3,0,0.9-0.1,1.2c0,0.4-0.4,0.7-0.8,0.7h-11.2
		c0.1,1.8,1.7,3.8,4.2,3.8c1.4,0,2.6-0.5,3.4-1.1c0.4-0.3,0.8-0.4,1.1,0l1.8,2.1c0.3,0.3,0.4,0.8,0,1.1c-1.4,1.4-3.7,2.4-6.5,2.4
		c-5.3,0-9-4.2-9-9.2C193.8,217.4,197.5,213.1,202.8,213.1z M205.8,220.1c-0.1-1.6-1.5-3-3.2-3c-1.8,0-3.2,1.3-3.4,3H205.8z"/>
	<path fill="#6F839C" d="M214.7,214.4c0-0.5,0.4-0.8,0.8-0.8h1.7c0.4,0,0.7,0.2,0.8,0.6l0.6,1.7c0.6-0.9,2.2-2.7,5-2.7
		c2.1,0,3.9,0.7,3.4,1.8l-1.6,2.9c-0.2,0.4-0.7,0.6-1,0.4c-0.1,0-0.8-0.3-1.3-0.3c-1.8,0-2.8,1.2-3.1,1.8v10.6c0,0.6-0.4,0.8-1,0.8
		h-3.4c-0.4,0-0.8-0.4-0.8-0.8V214.4z"/>
	<path fill="#6F839C" d="M235,243.4c0,0.5-0.3,0.8-1.1,0.8h-3.5c-0.4,0-0.8-0.4-0.8-0.8v-29.1c0-0.5,0.4-0.8,0.8-0.8h1.7
		c0.3,0,0.6,0.2,0.7,0.5l0.6,1.4c0.7-0.9,2.8-2.4,5.7-2.4c4.8,0,8.5,4.2,8.5,9.2c0,5.2-4,9.2-8.7,9.2c-1.7,0-3.3-0.6-3.9-1V243.4z
		 M238.2,226.8c2.5,0,4.3-2,4.3-4.5s-1.7-4.5-4.1-4.5c-2.2,0-3.3,1.8-3.6,2.7v5.3C234.8,225.8,236,226.8,238.2,226.8z"/>
	<path fill="#6F839C" d="M251.6,214.4c0-0.5,0.4-0.8,0.8-0.8h1.7c0.4,0,0.7,0.2,0.8,0.6l0.6,1.7c0.6-0.9,2.2-2.7,5-2.7
		c2.1,0,3.9,0.7,3.4,1.8l-1.6,2.9c-0.2,0.4-0.7,0.6-1,0.4c-0.1,0-0.8-0.3-1.3-0.3c-1.8,0-2.8,1.2-3.1,1.8v10.6c0,0.6-0.4,0.8-1,0.8
		h-3.4c-0.4,0-0.8-0.4-0.8-0.8V214.4z"/>
	<path fill="#6F839C" d="M266.2,204.3c0-1.7,1.3-3,3-3c1.7,0,3.1,1.4,3.1,3s-1.4,3-3.1,3C267.5,207.3,266.2,205.9,266.2,204.3z
		 M266.6,214.4c0-0.5,0.4-0.8,0.8-0.8h3.6c0.4,0,0.8,0.4,0.8,0.8v15.9c0,0.4-0.4,0.8-0.8,0.8h-3.6c-0.4,0-0.8-0.4-0.8-0.8V214.4z"/>
	<path fill="#6F839C" d="M276.2,229l1.2-2.4c0.2-0.4,0.6-0.5,1-0.3c0,0,2,1.1,4,1.1c0.9,0,1.5-0.4,1.5-1.1c0-0.8-0.6-1.3-2.9-2.2
		c-3.4-1.3-5-3.1-5-5.8s2-5.2,6.5-5.2c2.6,0,4.5,0.7,5.4,1.4c0.4,0.3,0.6,0.7,0.4,1.2l-1.1,2.2c-0.2,0.4-0.7,0.4-1.1,0.3
		c0,0-2-0.9-3.6-0.9c-1.1,0-1.5,0.4-1.5,1c0,0.8,0.8,1.1,2.4,1.7c3.4,1.3,5.9,2.8,5.9,6.2c0,2.9-2.5,5.4-7,5.4
		c-2.9,0-4.9-0.9-5.8-1.6C276.2,229.7,276,229.3,276.2,229z"/>
	<path fill="#6F839C" d="M300.8,213.1c4.5,0,8.2,3.4,8.2,8.2c0,0.3,0,0.9-0.1,1.2c0,0.4-0.4,0.7-0.8,0.7h-11.2
		c0.1,1.8,1.7,3.8,4.2,3.8c1.4,0,2.6-0.5,3.4-1.1c0.4-0.3,0.8-0.4,1.1,0l1.8,2.1c0.3,0.3,0.4,0.8,0,1.1c-1.4,1.4-3.7,2.4-6.5,2.4
		c-5.3,0-9-4.2-9-9.2C291.8,217.4,295.6,213.1,300.8,213.1z M303.9,220.1c-0.1-1.6-1.5-3-3.2-3c-1.8,0-3.2,1.3-3.4,3H303.9z"/>
</g>
</svg>
